<svg width="295" height="186" viewBox="0 0 295 186" fill="none" xmlns="http://www.w3.org/2000/svg">
<g clip-path="url(#clip0)">
<path d="M157.244 112.941L147.747 103.514C146.971 102.745 146.971 101.59 147.747 100.821L151.623 96.973C152.398 96.2035 153.561 96.2035 154.337 96.973L163.834 106.4C165.676 108.228 165.676 111.114 163.834 112.845C161.993 114.769 159.085 114.769 157.244 112.941Z" fill="white"/>
<path d="M155.403 89.7585L158.892 86.2955C159.764 85.4298 159.764 84.0831 158.892 83.3135L148.522 73.0208C147.262 71.7703 145.324 71.7703 144.161 73.0208L142.029 75.137L139.8 77.3495L137.183 79.9467L133.888 83.2173L133.113 83.9869C131.756 85.3336 131.756 87.4498 133.113 88.7966L138.249 93.8948L135.632 96.4921L129.527 90.4318C128.655 89.5661 127.298 89.5661 126.522 90.4318L123.034 93.8948C122.161 94.7606 122.161 96.1073 123.034 96.8768L133.403 107.17C134.663 108.42 136.602 108.42 137.764 107.17L139.024 105.919L142.126 102.841L144.742 100.244L147.456 97.5502L148.813 96.2035C150.169 94.8568 150.169 92.7405 148.813 91.3938L143.676 86.2955L146.293 83.6983L152.398 89.7585C153.174 90.6242 154.531 90.6242 155.403 89.7585Z" fill="white"/>
<path d="M193.005 29.7336L191.164 27.8097H185.349H167.42C167.42 28.0021 167.42 28.0983 167.42 28.2907C167.42 41.0844 157.05 51.3772 144.161 51.3772C131.271 51.3772 120.901 41.0844 120.901 28.2907C120.901 28.0983 120.901 28.0021 120.901 27.8097H103.651H97.836L95.9946 29.7336L59.8457 65.6138L96.1884 101.687L101.906 96.0111V157.19H187.191V96.0111L192.909 101.687L229.251 65.6138L193.005 29.7336Z" stroke="white" stroke-opacity="0.5" stroke-width="6" stroke-miterlimit="10" stroke-linejoin="round"/>
<path fill-rule="evenodd" clip-rule="evenodd" d="M216.671 119.136C215.102 118.606 213.606 120.102 214.136 121.671L218.423 134.359C218.898 135.764 220.684 136.182 221.732 135.133L224.063 132.803L227.179 135.92C228.212 136.952 229.887 136.952 230.92 135.92C231.952 134.887 231.952 133.212 230.92 132.179L227.803 129.063L230.133 126.732C231.182 125.683 230.764 123.898 229.359 123.423L216.671 119.136Z" fill="white"/>
</g>
<rect x="3" y="3" width="289" height="180" rx="7" stroke="white" stroke-width="6" stroke-dasharray="15 15"/>
<defs>
<clipPath id="clip0">
<rect x="55" y="23" width="179" height="139" fill="white"/>
</clipPath>
</defs>
</svg>
