<svg width="295" height="162" viewBox="0 0 295 162" fill="none" xmlns="http://www.w3.org/2000/svg">
<path d="M90.1131 95.7058L83.3216 88.9238C82.7672 88.3702 82.7672 87.5398 83.3216 86.9861L86.0936 84.218C86.648 83.6643 87.4797 83.6643 88.0341 84.218L94.8256 91C96.1424 92.3148 96.1424 94.391 94.8256 95.6366C93.5089 97.0207 91.4299 97.0207 90.1131 95.7058Z" fill="white"/>
<path d="M88.7964 79.0277L91.2913 76.5363C91.915 75.9135 91.915 74.9446 91.2913 74.391L83.876 66.9861C82.9751 66.0865 81.589 66.0865 80.7574 66.9861L79.2328 68.5086L77.6388 70.1003L75.7677 71.9688L73.4115 74.3218L72.857 74.8754C71.8868 75.8443 71.8868 77.3668 72.857 78.3356L76.53 82.0034L74.6589 83.872L70.2929 79.5121C69.6692 78.8893 68.6989 78.8893 68.1445 79.5121L65.6497 82.0034C65.026 82.6263 65.026 83.5951 65.6497 84.1488L73.0649 91.5536C73.9659 92.4533 75.3519 92.4533 76.1835 91.5536L77.0844 90.654L79.3021 88.4394L81.1732 86.5709L83.1137 84.6332L84.0839 83.6643C85.0541 82.6955 85.0541 81.173 84.0839 80.2041L80.4109 76.5363L82.282 74.6678L86.648 79.0277C87.2025 79.6505 88.1727 79.6505 88.7964 79.0277Z" fill="white"/>
<path d="M115.685 35.8443L114.369 34.4602H110.211H97.3898C97.3898 34.5986 97.3898 34.6678 97.3898 34.8062C97.3898 44.0104 89.9746 51.4152 80.7574 51.4152C71.5403 51.4152 64.1251 44.0104 64.1251 34.8062C64.1251 34.6678 64.1251 34.5986 64.1251 34.4602H51.7894H47.6313L46.3146 35.8443L20.4651 61.6574L46.4532 87.609L50.542 83.5259V127.54H111.527V83.5259L115.616 87.609L141.604 61.6574L115.685 35.8443Z" stroke="white" stroke-opacity="0.5" stroke-width="6" stroke-miterlimit="10" stroke-linejoin="round"/>
<rect x="3" y="3" width="156" height="156" rx="7" stroke="white" stroke-opacity="0.5" stroke-width="6"/>
<line x1="180" y1="13" x2="295" y2="13" stroke="white" stroke-opacity="0.5" stroke-width="6"/>
<line x1="180" y1="36" x2="295" y2="36" stroke="white" stroke-opacity="0.5" stroke-width="6"/>
<path d="M180 59H239" stroke="white" stroke-opacity="0.5" stroke-width="6"/>
<rect x="180" y="81" width="115" height="33" rx="5" fill="white"/>
<path d="M228 96L235.5 103L247 91.5" stroke="#6878FF" stroke-width="6"/>
</svg>
