<svg width="386" height="386" viewBox="0 0 386 386" fill="none" xmlns="http://www.w3.org/2000/svg">
<g opacity="0.5">
<g clip-path="url(#clip0)">
<path d="M383.784 193C383.784 233.537 371.148 271.037 349.648 301.973C315.184 351.454 257.908 383.784 193 383.784C87.6378 383.784 2.21558 298.362 2.21558 193C2.21558 168.793 6.72876 145.571 15.0166 124.236C32.7411 78.3652 67.6157 41.111 111.845 20.2683C136.462 8.69814 164.034 2.13351 193.082 2.13351C239.363 2.13351 281.787 18.6271 314.774 46.0344C333.647 61.7075 349.402 80.827 361.137 102.572C367.209 113.896 372.214 125.877 375.989 138.432C381.077 155.828 383.784 174.127 383.784 193Z" stroke="#6878FF" stroke-width="7" stroke-miterlimit="10" stroke-linecap="round"/>
<path d="M226.398 239.527L219.423 246.994V274.73C219.423 277.191 217.782 279.407 215.32 280.063L199.319 284.166L194.969 306.978C194.395 310.014 192.836 312.886 190.62 315.02L172.486 332.17C169.367 335.124 168.219 339.637 169.614 343.74L176.917 365.157C177.081 365.732 177.163 366.306 177.163 366.798C177.163 368.85 175.932 370.819 173.881 371.64C172.075 372.378 170.106 372.05 168.629 370.819L156.73 360.644C154.433 358.757 152.874 356.131 152.299 353.259L145.078 318.302L141.878 278.75C141.55 274.565 139.334 270.873 135.806 268.575L121.774 259.385C118.984 257.58 116.85 254.954 115.537 251.918L108.316 234.439C106.101 229.188 106.347 223.197 108.973 218.11L117.507 201.534L99.6182 195.544L92.8895 191.113L85.4222 182.168L72.7853 179.214L59.4099 178.476L46.773 170.27L44.5574 159.849L41.6034 146.473L37.1722 135.395L31.182 138.35L34.1361 151.151C34.5464 152.956 32.3308 154.187 31.0179 152.792L23.7148 144.996L22.2377 130.882L14.9346 124.236C32.6591 78.3652 67.5336 41.111 111.763 20.2683L118.984 27.4894L126.451 24.043C128.338 23.1403 129.98 25.6841 128.421 27.0791L127.928 27.4894L121.938 36.4337L129.405 37.9107L140.565 32.7411L145.981 24.9456C146.391 24.3712 146.966 23.8788 147.54 23.5506C148.196 23.2224 148.853 22.9762 149.591 22.9762C153.776 22.73 156.156 27.5714 153.366 30.7717L150.986 33.5617L156.977 34.3002L164.444 27.5714L171.173 18.6271L194.231 23.7968L199.401 32.0026L206.129 37.9928L199.401 43.1624L186.025 46.1165L182.333 34.2181L172.65 37.1722L165.921 42.3418L159.192 46.0344H150.986C150.986 46.0344 136.873 48.9885 134.657 50.4656C132.441 51.9426 122.02 60.1484 122.02 60.1484L130.226 65.318L138.432 69.7492L140.647 78.6935L147.376 75.0009L157.059 69.8312L160.013 63.1025L160.751 54.1582L167.48 50.4656L175.686 54.8967L176.424 65.318L185.369 62.364H196.529L201.698 70.5697L195.708 78.7755L199.647 85.9146C200.057 86.6531 200.221 87.3916 200.221 88.1301C200.221 90.4277 198.498 92.4792 195.954 92.7254C194.395 92.8074 192.836 92.1509 191.933 90.838L185.287 81.7296H169.696L163.705 89.9354L138.432 105.526L136.216 117.425L116.112 136.79L114.799 143.437C114.471 144.832 112.583 145.078 111.927 143.765L108.645 136.79H97.4847L74.3444 142.781L67.1234 152.053C65.7284 153.776 65.0719 155.992 65.0719 158.125C65.0719 159.11 65.236 160.095 65.5643 161.08C66.8772 165.182 70.6518 168.054 75.0009 168.054H81.0732L90.1816 165.018C91.4125 164.608 92.3151 166.249 91.2484 166.988L86.9813 170.27L101.834 176.999V188.897L124.154 194.067L143.519 185.122L165.1 196.282L182.661 216.715C186.107 220.736 191.195 223.033 196.529 222.869L214.663 222.377C216.304 222.295 217.864 222.951 219.012 224.018L226.151 230.747C228.613 233.126 228.695 237.065 226.398 239.527Z" stroke="#6878FF" stroke-width="7" stroke-miterlimit="10" stroke-linecap="round"/>
<path d="M361.054 102.654H359.249L355.228 109.957C354.079 112.091 350.879 111.599 350.387 109.219L349.648 105.608L347.269 95.6794C346.858 94.0382 345.628 92.8074 343.904 92.4791L332.58 90.0995C331.103 89.7712 330.037 91.4124 330.775 92.6433L332.416 95.2691L342.838 105.69L339.309 112.747C338.899 113.568 337.586 113.322 337.586 112.337V105.69H333.155L326.426 103.475L318.22 95.2691L310.014 99.7002L303.286 105.69L293.767 114.553L283.346 116.03L277.355 108.562V98.6335C277.355 96.8282 278.997 95.4332 280.802 95.6794L296.721 98.1411C296.721 98.1411 295.244 91.4124 293.767 89.9354C292.29 88.4583 299.757 83.2066 299.757 83.2066L304.188 84.6837C304.188 84.6837 309.358 80.2525 307.881 77.2164C306.404 74.1803 309.358 72.0468 309.358 72.0468L319.041 69.8312L321.995 63.1025L321.256 57.9328L316.087 54.8146C312.969 52.9273 312.312 48.7423 314.692 46.0344C333.565 61.7075 349.402 80.909 361.054 102.654Z" stroke="#6878FF" stroke-width="7" stroke-miterlimit="10" stroke-linecap="round"/>
<path d="M383.784 193C383.784 233.537 371.148 271.037 349.648 301.973H341.443L335.452 290.074L331.021 269.232L328.067 258.072L336.273 243.958L321.42 223.115L326.59 209.001L318.384 203.011L313.215 199.318L299.839 200.057L293.111 202.273C293.111 202.273 264.883 207.442 254.461 183.645C241.824 145.735 280.474 121.199 280.474 121.199L291.633 124.892L302.055 115.948H321.42L326.59 126.369L339.227 133.836H347.433V126.369H357.116L366.06 133.836H374.266L376.071 138.514C381.076 155.828 383.784 174.127 383.784 193Z" stroke="#6878FF" stroke-width="7" stroke-miterlimit="10" stroke-linecap="round"/>
<path d="M189.551 268.376L193.498 270.82L197.446 268.378L269.946 223.528L273.5 221.33V217.15V157.272V153.29L270.201 151.059L228.39 122.787L224.189 119.946L219.987 122.788L193.5 140.703L167.013 122.788L162.811 119.946L158.61 122.787L116.799 151.059L113.5 153.29V157.272V217.103V221.28L117.051 223.479L189.551 268.376ZM189.298 182.88L193.5 185.722L197.702 182.88L224.19 164.964L236.21 173.089V200.527L193.5 226.973L150.79 200.527V173.089L162.81 164.964L189.298 182.88Z" fill="#6878FF" stroke="#383B53" stroke-width="15"/>
</g>
</g>
<defs>
<clipPath id="clip0">
<rect width="386" height="386" fill="white"/>
</clipPath>
</defs>
</svg>
