<svg width="52" height="53" viewBox="0 0 52 53" fill="none" xmlns="http://www.w3.org/2000/svg">
<circle cx="30.2114" cy="25.2753" r="21.789" fill="white"/>
<path d="M26.2891 0C12.0902 0 0.578125 11.7072 0.578125 26.1468C0.578125 40.5864 12.0902 52.2936 26.2891 52.2936C40.488 52.2936 52.0001 40.5864 52.0001 26.1468C52.0001 11.7072 40.488 0 26.2891 0ZM32.7169 17.4312H29.8244C28.6717 17.4312 28.4317 17.9127 28.4317 19.1264V21.789H32.7169L32.2691 26.1468H28.4317V41.3991H22.004V26.1468H17.7188V21.789H22.004V16.7601C22.004 12.9056 23.9987 10.8945 28.4939 10.8945H32.7169V17.4312Z" fill="#6878FF"/>
</svg>
