<svg width="279" height="200" viewBox="0 0 279 200" fill="none" xmlns="http://www.w3.org/2000/svg">
<g clip-path="url(#clip0)">
<path d="M156.6 189C204.648 189 243.6 150.049 243.6 102C243.6 53.9512 204.648 15 156.6 15C108.551 15 69.5996 53.9512 69.5996 102C69.5996 150.049 108.551 189 156.6 189Z" stroke="#D7DDFF" stroke-width="2" stroke-linejoin="round" stroke-dasharray="4.97 4.97"/>
<path d="M87.2996 82.4C109.778 82.4 128 64.178 128 41.7C128 19.222 109.778 1 87.2996 1C64.8216 1 46.5996 19.222 46.5996 41.7C46.5996 64.178 64.8216 82.4 87.2996 82.4Z" fill="white" stroke="#6878FF" stroke-width="2" stroke-miterlimit="10" stroke-linejoin="round"/>
<path d="M77.1992 50H70.1992V69.9H77.1992V50Z" fill="white" stroke="#6878FF" stroke-width="2" stroke-miterlimit="10" stroke-linejoin="round"/>
<path d="M82.0992 36.5H77.6992H76.1992L75.7992 37L66.6992 46.1L75.8992 55.3L77.2992 53.9V69.5H98.8992V53.9L100.299 55.3L109.499 46.1L100.399 37L99.8992 36.5H98.3992H93.8992" fill="white"/>
<path d="M82.0992 36.5H77.6992H76.1992L75.7992 37L66.6992 46.1L75.8992 55.3L77.2992 53.9V69.5H98.8992V53.9L100.299 55.3L109.499 46.1L100.399 37L99.8992 36.5H98.3992H93.8992" stroke="#6878FF" stroke-width="2" stroke-miterlimit="10" stroke-linejoin="round"/>
<path d="M91.299 58.2L88.899 55.8C88.699 55.6 88.699 55.3 88.899 55.1L89.899 54.1C90.099 53.9 90.399 53.9 90.599 54.1L92.999 56.5C93.499 57 93.499 57.7 92.999 58.2C92.499 58.7 91.799 58.7 91.299 58.2Z" fill="#6878FF"/>
<path d="M90.8992 52.3L91.7992 51.4C91.9992 51.2 91.9992 50.8 91.7992 50.6L89.0992 48C88.7992 47.7 88.2992 47.7 87.9992 48L87.4992 48.5L86.8992 49.1L86.1992 49.8L85.3992 50.6L85.1992 50.8C84.8992 51.1 84.8992 51.7 85.1992 52L86.4992 53.3L85.7992 54L84.2992 52.5C84.0992 52.3 83.6992 52.3 83.4992 52.5L82.5992 53.4C82.3992 53.6 82.3992 54 82.5992 54.2L85.1992 56.8C85.4992 57.1 85.9992 57.1 86.2992 56.8L86.5992 56.5L87.3992 55.7L88.0992 55L88.7992 54.3L89.0992 54C89.3992 53.7 89.3992 53.1 89.0992 52.8L87.7992 51.5L88.4992 50.8L89.9992 52.3C90.2992 52.5 90.6992 52.5 90.8992 52.3Z" fill="#6878FF"/>
<path d="M88.0996 40.5C85.8996 40.5 84.0996 38.7 84.0996 36.5V32.5H92.0996V36.5C92.0996 38.7 90.2996 40.5 88.0996 40.5Z" fill="white" stroke="#6878FF" stroke-width="2" stroke-miterlimit="10" stroke-linejoin="round"/>
<path d="M88.3992 35.5C82.1992 35.5 77.1992 30.5 77.1992 24.3V20.8C77.1992 14.6 82.1992 9.60001 88.3992 9.60001C94.5992 9.60001 99.5992 14.6 99.5992 20.8V24.3C99.5992 30.5 94.4992 35.5 88.3992 35.5Z" fill="white" stroke="#6878FF" stroke-width="2" stroke-miterlimit="10" stroke-linejoin="round"/>
<path d="M82.8994 23.6C83.7278 23.6 84.3994 22.9284 84.3994 22.1C84.3994 21.2716 83.7278 20.6 82.8994 20.6C82.071 20.6 81.3994 21.2716 81.3994 22.1C81.3994 22.9284 82.071 23.6 82.8994 23.6Z" fill="#6878FF"/>
<path d="M93.7998 23.6C94.6282 23.6 95.2998 22.9284 95.2998 22.1C95.2998 21.2716 94.6282 20.6 93.7998 20.6C92.9714 20.6 92.2998 21.2716 92.2998 22.1C92.2998 22.9284 92.9714 23.6 93.7998 23.6Z" fill="#6878FF"/>
<path d="M84.499 27.6C85.399 28.8 86.799 29.6 88.399 29.6C89.999 29.6 91.399 28.8 92.299 27.6" stroke="#6878FF" stroke-width="2" stroke-miterlimit="10" stroke-linejoin="round"/>
<path d="M103.6 62.4C101.9 62.4 100.6 61.1 100.6 59.4V42H106.6V59.4C106.5 61.1 105.2 62.4 103.6 62.4Z" fill="white" stroke="#6878FF" stroke-width="2" stroke-miterlimit="10" stroke-linejoin="round"/>
<path d="M106.499 38.5H102.499V35C102.499 33.9 103.399 33 104.499 33C105.599 33 106.499 33.9 106.499 35V38.5Z" fill="white" stroke="#6878FF" stroke-width="2" stroke-miterlimit="10" stroke-linejoin="round"/>
<path d="M103.6 46H99.9996C97.8996 46 96.0996 44.3 96.0996 42.1V40.4C96.0996 38.3 97.7996 36.5 99.9996 36.5H103.6C105.2 36.5 106.5 37.8 106.5 39.4V43C106.5 44.7 105.2 46 103.6 46Z" fill="white" stroke="#6878FF" stroke-width="2" stroke-miterlimit="10" stroke-linejoin="round"/>
<path d="M236.9 126.5C259.378 126.5 277.6 108.278 277.6 85.8C277.6 63.322 259.378 45.1 236.9 45.1C214.422 45.1 196.2 63.322 196.2 85.8C196.2 108.278 214.422 126.5 236.9 126.5Z" fill="white" stroke="#6878FF" stroke-width="2" stroke-miterlimit="10" stroke-linejoin="round"/>
<path d="M225.5 95.1H218.5V115H225.5V95.1Z" fill="white" stroke="#6878FF" stroke-width="2" stroke-miterlimit="10" stroke-linejoin="round"/>
<path d="M230.5 81.6H226.1H224.6L224.1 82.1L215 91.2L224.2 100.4L225.6 99V114.6H247.2V99L248.6 100.4L257.8 91.2L248.7 82.1L248.2 81.6H246.7H242.2" fill="white"/>
<path d="M230.5 81.6H226.1H224.6L224.1 82.1L215 91.2L224.2 100.4L225.6 99V114.6H247.2V99L248.6 100.4L257.8 91.2L248.7 82.1L248.2 81.6H246.7H242.2" stroke="#6878FF" stroke-width="2" stroke-miterlimit="10" stroke-linejoin="round"/>
<path d="M239.699 103.3L237.299 100.9C237.099 100.7 237.099 100.4 237.299 100.2L238.299 99.2C238.499 99 238.799 99 238.999 99.2L241.399 101.6C241.899 102.1 241.899 102.8 241.399 103.3C240.899 103.8 240.199 103.8 239.699 103.3Z" fill="#6878FF"/>
<path d="M239.2 97.4L240.1 96.5C240.3 96.3 240.3 95.9 240.1 95.7L237.5 93.1C237.2 92.8 236.7 92.8 236.4 93.1L235.9 93.6L235.3 94.2L234.6 94.9L233.8 95.7L233.6 95.9C233.3 96.2 233.3 96.8 233.6 97.1L234.9 98.4L234.2 99.1L232.7 97.6C232.5 97.4 232.1 97.4 231.9 97.6L231 98.5C230.8 98.7 230.8 99.1 231 99.3L233.6 101.9C233.9 102.2 234.4 102.2 234.7 101.9L235 101.6L235.8 100.8L236.5 100.1L237.2 99.4L237.5 99.1C237.8 98.8 237.8 98.2 237.5 97.9L236.2 96.6L236.9 95.9L238.4 97.4C238.7 97.6 239 97.6 239.2 97.4Z" fill="#6878FF"/>
<path d="M236.5 85.6C234.3 85.6 232.5 83.8 232.5 81.6V77.6H240.5V81.6C240.4 83.8 238.7 85.6 236.5 85.6Z" fill="white" stroke="#6878FF" stroke-width="2" stroke-miterlimit="10" stroke-linejoin="round"/>
<path d="M236.7 80.6C230.5 80.6 225.5 75.6 225.5 69.4V65.9C225.5 59.7 230.5 54.7 236.7 54.7C242.9 54.7 247.9 59.7 247.9 65.9V69.4C247.9 75.6 242.9 80.6 236.7 80.6Z" fill="white" stroke="#6878FF" stroke-width="2" stroke-miterlimit="10" stroke-linejoin="round"/>
<path d="M232.9 72.7C233.8 73.9 235.2 74.7 236.8 74.7C238.4 74.7 239.8 73.9 240.7 72.7" stroke="#6878FF" stroke-width="2" stroke-miterlimit="10" stroke-linejoin="round"/>
<path d="M234.2 67.7C233.8 67.1 233.1 66.7 232.3 66.7C231.5 66.7 230.8 67.1 230.4 67.7" stroke="#6878FF" stroke-width="2" stroke-miterlimit="10" stroke-linejoin="round"/>
<path d="M243.101 67.7C242.701 67.1 242.001 66.7 241.201 66.7C240.401 66.7 239.701 67.1 239.301 67.7" stroke="#6878FF" stroke-width="2" stroke-miterlimit="10" stroke-linejoin="round"/>
<path d="M248.8 105.4C247.3 104.7 246.6 103 247.2 101.5L254.1 85.5L259.6 87.9L252.7 103.9C252 105.4 250.3 106.1 248.8 105.4Z" fill="white" stroke="#6878FF" stroke-width="2" stroke-miterlimit="10" stroke-linejoin="round"/>
<path d="M261.3 77.7L259.7 77C257.7 76.2 255.5 77.1 254.6 79L253.5 81.5C252.7 80.7 251.5 80.8 250.7 81.5C249.9 82.3 249.9 83.5 250.7 84.3L252.1 85.7C252.2 86.7 252.9 87.6 253.9 88L257.2 89.4C258.7 90 260.4 89.4 261.1 87.9L263.3 82.7C264.2 80.9 263.3 78.6 261.3 77.7Z" fill="white" stroke="#6878FF" stroke-width="2" stroke-miterlimit="10" stroke-linejoin="round"/>
<path d="M88.9998 199C111.478 199 129.7 180.778 129.7 158.3C129.7 135.822 111.478 117.6 88.9998 117.6C66.5218 117.6 48.2998 135.822 48.2998 158.3C48.2998 180.778 66.5218 199 88.9998 199Z" fill="white" stroke="#6878FF" stroke-width="2" stroke-miterlimit="10" stroke-linejoin="round"/>
<path d="M82.5996 155.6H78.1996H76.6996L76.1996 156.1L67.0996 165.2L76.2996 174.4L77.6996 173V188.6H99.2996V173L100.7 174.4L109.9 165.2L100.8 156.1L100.3 155.6H98.7996H94.2996" fill="white"/>
<path d="M82.5996 155.6H78.1996H76.6996L76.1996 156.1L67.0996 165.2L76.2996 174.4L77.6996 173V188.6H99.2996V173L100.7 174.4L109.9 165.2L100.8 156.1L100.3 155.6H98.7996H94.2996" stroke="#6878FF" stroke-width="2" stroke-miterlimit="10" stroke-linejoin="round"/>
<path d="M91.8 177.3L89.4 174.9C89.2 174.7 89.2 174.4 89.4 174.2L90.4 173.2C90.6 173 90.9 173 91.1 173.2L93.5 175.6C94 176.1 94 176.8 93.5 177.3C93 177.7 92.3 177.7 91.8 177.3Z" fill="#6878FF"/>
<path d="M91.3002 171.4L92.2002 170.5C92.4002 170.3 92.4002 169.9 92.2002 169.7L89.6002 167.1C89.3002 166.8 88.8002 166.8 88.5002 167.1L88.0002 167.6L87.4002 168.2L86.7002 168.9L85.9002 169.7L85.7002 169.9C85.4002 170.2 85.4002 170.8 85.7002 171.1L87.0002 172.4L86.3002 173.1L84.8002 171.6C84.6002 171.4 84.2002 171.4 84.0002 171.6L83.1002 172.5C82.9002 172.7 82.9002 173.1 83.1002 173.3L85.7002 175.9C86.0002 176.2 86.5002 176.2 86.8002 175.9L87.1002 175.6L87.9002 174.8L88.6002 174.1L89.3002 173.4L89.6002 173.1C89.9002 172.8 89.9002 172.2 89.6002 171.9L88.3002 170.6L89.0002 169.9L90.5002 171.4C90.8002 171.6 91.1002 171.6 91.3002 171.4Z" fill="#6878FF"/>
<path d="M88.5996 159.6C86.3996 159.6 84.5996 157.8 84.5996 155.6V151.6H92.5996V155.6C92.5996 157.8 90.7996 159.6 88.5996 159.6Z" fill="white" stroke="#6878FF" stroke-width="2" stroke-miterlimit="10" stroke-linejoin="round"/>
<path d="M88.7996 154.6C82.5996 154.6 77.5996 149.6 77.5996 143.4V139.9C77.5996 133.7 82.5996 128.7 88.7996 128.7C94.9996 128.7 99.9996 133.7 99.9996 139.9V143.4C99.9996 149.6 94.9996 154.6 88.7996 154.6Z" fill="white" stroke="#6878FF" stroke-width="2" stroke-miterlimit="10" stroke-linejoin="round"/>
<path d="M85 146.6C85.9 147.8 87.3 148.6 88.9 148.6C90.5 148.6 91.9 147.8 92.8 146.6" stroke="#6878FF" stroke-width="2" stroke-miterlimit="10" stroke-linejoin="round"/>
<path d="M86.3 141.6C85.9 141 85.2 140.6 84.4 140.6C83.6 140.6 82.9 141 82.5 141.6" stroke="#6878FF" stroke-width="2" stroke-miterlimit="10" stroke-linejoin="round"/>
<path d="M95.2004 141.6C94.8004 141 94.1004 140.6 93.3004 140.6C92.5004 140.6 91.8004 141 91.4004 141.6" stroke="#6878FF" stroke-width="2" stroke-miterlimit="10" stroke-linejoin="round"/>
<path d="M100.9 176.5C99.4002 175.8 98.7002 174.1 99.3002 172.6L106.2 156.6L111.7 159L104.8 175C104.1 176.5 102.4 177.2 100.9 176.5Z" fill="white" stroke="#6878FF" stroke-width="2" stroke-miterlimit="10" stroke-linejoin="round"/>
<path d="M113.4 148.8L111.8 148.1C109.8 147.3 107.6 148.2 106.7 150.1L105.6 152.6C104.8 151.8 103.6 151.9 102.8 152.6C102 153.4 102 154.6 102.8 155.4L104.2 156.8C104.3 157.8 105 158.7 106 159.1L109.3 160.5C110.8 161.1 112.5 160.5 113.2 159L115.4 153.8C116.3 152 115.4 149.7 113.4 148.8Z" fill="white" stroke="#6878FF" stroke-width="2" stroke-miterlimit="10" stroke-linejoin="round"/>
<path d="M76.5998 176.5C78.0998 175.8 78.7998 174.1 78.1998 172.6L71.2998 156.6L65.7998 159L72.6998 175C73.2998 176.5 75.0998 177.2 76.5998 176.5Z" fill="white" stroke="#6878FF" stroke-width="2" stroke-miterlimit="10" stroke-linejoin="round"/>
<path d="M63.9995 148.8L65.5995 148.1C67.5995 147.3 69.7995 148.2 70.6995 150.1L71.7995 152.6C72.5995 151.8 73.7995 151.9 74.5995 152.6C75.3995 153.4 75.3995 154.6 74.5995 155.4L73.1995 156.8C73.0995 157.8 72.3995 158.7 71.3995 159.1L68.0995 160.5C66.5995 161.1 64.8995 160.5 64.1995 159L61.9995 153.8C61.0995 152 62.0995 149.7 63.9995 148.8Z" fill="white" stroke="#6878FF" stroke-width="2" stroke-miterlimit="10" stroke-linejoin="round"/>
<path d="M197.5 73.3H115V140.6H197.5V73.3Z" fill="white" stroke="#6878FF" stroke-width="2" stroke-miterlimit="10" stroke-linejoin="round"/>
<path d="M117 83.9C112.6 83.9 109.1 80.4 109.1 76V63.4H124.9V75.9C124.9 80.3 121.4 83.9 117 83.9Z" fill="white" stroke="#6878FF" stroke-width="2" stroke-miterlimit="10" stroke-linejoin="round"/>
<path d="M132.9 83.9C128.5 83.9 125 80.4 125 76V63.4H140.8V75.9C140.8 80.3 137.2 83.9 132.9 83.9Z" fill="white" stroke="#6878FF" stroke-width="2" stroke-miterlimit="10" stroke-linejoin="round"/>
<path d="M148.7 83.9C144.3 83.9 140.8 80.4 140.8 76V63.4H156.6V75.9C156.6 80.3 153.1 83.9 148.7 83.9Z" fill="white" stroke="#6878FF" stroke-width="2" stroke-miterlimit="10" stroke-linejoin="round"/>
<path d="M164.5 83.9C160.1 83.9 156.6 80.4 156.6 76V63.4H172.4V75.9C172.4 80.3 168.9 83.9 164.5 83.9Z" fill="white" stroke="#6878FF" stroke-width="2" stroke-miterlimit="10" stroke-linejoin="round"/>
<path d="M180.4 83.9C176 83.9 172.5 80.4 172.5 76V63.4H188.3V75.9C188.3 80.3 184.7 83.9 180.4 83.9Z" fill="white" stroke="#6878FF" stroke-width="2" stroke-miterlimit="10" stroke-linejoin="round"/>
<path d="M196.2 83.9C191.8 83.9 188.3 80.4 188.3 76V63.4H204.1V75.9C204.1 80.3 200.6 83.9 196.2 83.9Z" fill="white" stroke="#6878FF" stroke-width="2" stroke-miterlimit="10" stroke-linejoin="round"/>
<path d="M148.1 95.1H123V140.6H148.1V95.1Z" fill="white" stroke="#6878FF" stroke-width="2" stroke-miterlimit="10" stroke-linejoin="round"/>
<path d="M189.6 95.1H156.6V120.2H189.6V95.1Z" fill="white" stroke="#6878FF" stroke-width="2" stroke-miterlimit="10" stroke-linejoin="round"/>
<path d="M171.4 120.1H160.6V115.2C160.6 113.5 162 112.1 163.7 112.1H168.3C170 112.1 171.4 113.5 171.4 115.2V120.1V120.1Z" fill="white" stroke="#6878FF" stroke-width="2" stroke-miterlimit="10" stroke-linejoin="round"/>
<path d="M185.999 120.1H175.199V115.2C175.199 113.5 176.599 112.1 178.299 112.1H182.899C184.599 112.1 185.999 113.5 185.999 115.2V120.1V120.1Z" fill="white" stroke="#6878FF" stroke-width="2" stroke-miterlimit="10" stroke-linejoin="round"/>
<path d="M147.999 132.7H112.399V140.6H147.999V132.7Z" fill="white" stroke="#6878FF" stroke-width="2" stroke-miterlimit="10" stroke-linejoin="round"/>
<path d="M144.1 114.9H136.8V118.2H144.1V114.9Z" fill="white" stroke="#6878FF" stroke-width="2" stroke-miterlimit="10" stroke-linejoin="round"/>
<path d="M179.3 69.3H130.5V85.8H179.3V69.3Z" fill="white" stroke="#6878FF" stroke-width="2" stroke-miterlimit="10" stroke-linejoin="round"/>
<path d="M192.8 118.2H152.6V124.8H192.8V118.2Z" fill="white" stroke="#6878FF" stroke-width="2" stroke-miterlimit="10" stroke-linejoin="round"/>
<path d="M170.1 75.6H139.8V79.6H170.1V75.6Z" fill="white" stroke="#6878FF" stroke-width="2" stroke-miterlimit="10" stroke-linejoin="round"/>
<path d="M195.1 29.6H200.1C200.2 29.4 200.3 29.2 200.4 29C200.2 28.2 200 27.3 200 26.3C200 21.1 204.2 16.8 209.5 16.8C212.2 16.8 214.6 17.9 216.3 19.7C217.6 15.5 221.4 12.4 226.1 12.4C227.3 12.4 228.4 12.6 229.4 13C231.4 8.9 235.6 6.2 240.4 6.2C247.2 6.2 252.7 11.7 252.7 18.5C252.7 20.1 252.4 21.7 251.8 23.1C254 24.3 255.9 25.9 257.5 27.8C258.7 27.4 259.9 27.1 261.2 27.1C263.8 27.1 266.2 28 268 29.6H272.5C274.2 29.6 275.6 31 275.6 32.7C275.6 34.4 274.2 35.8 272.5 35.8H195.1C193.4 35.8 192 34.4 192 32.7C192 31 193.4 29.6 195.1 29.6Z" fill="white" stroke="#6878FF" stroke-width="2" stroke-miterlimit="10" stroke-linejoin="round"/>
<path d="M4.1 98.6H9.1C9.2 98.4 9.3 98.2 9.4 98C9.2 97.2 9 96.3 9 95.3C9 90.1 13.2 85.8 18.5 85.8C21.2 85.8 23.6 86.9 25.3 88.7C26.6 84.5 30.4 81.4 35.1 81.4C36.3 81.4 37.4 81.6 38.4 82C40.4 77.9 44.6 75.2 49.4 75.2C56.2 75.2 61.7 80.7 61.7 87.5C61.7 89.1 61.4 90.7 60.8 92.1C63 93.3 64.9 94.9 66.5 96.8C67.7 96.4 68.9 96.1 70.2 96.1C72.8 96.1 75.2 97 77 98.6H81.5C83.2 98.6 84.6 100 84.6 101.7C84.6 103.4 83.2 104.8 81.5 104.8H4.1C2.4 104.8 1 103.4 1 101.7C1 100 2.4 98.6 4.1 98.6Z" fill="white" stroke="#6878FF" stroke-width="2" stroke-miterlimit="10" stroke-linejoin="round"/>
</g>
<defs>
<clipPath id="clip0">
<rect width="278.6" height="200" fill="white"/>
</clipPath>
</defs>
</svg>
