<svg width="26" height="20" viewBox="0 0 26 20" fill="none" xmlns="http://www.w3.org/2000/svg">
<mask id="path-1-inside-1" fill="white">
<path d="M24.1429 19.5H1.85714C0.742857 19.5 0 18.72 0 17.55V1.95C0 0.78 0.742857 0 1.85714 0H24.1429C25.2571 0 26 0.78 26 1.95V17.55C26 18.72 25.2571 19.5 24.1429 19.5Z"/>
</mask>
<path d="M24.1429 16.5H1.85714V22.5H24.1429V16.5ZM1.85714 16.5C2.02707 16.5 2.38021 16.5767 2.68313 16.8948C2.97348 17.1996 3 17.4959 3 17.55H-3C-3 18.7741 -2.60205 20.0453 -1.6617 21.0327C-0.708781 22.0333 0.572929 22.5 1.85714 22.5V16.5ZM3 17.55V1.95H-3V17.55H3ZM3 1.95C3 2.00411 2.97348 2.30035 2.68313 2.60522C2.38021 2.92328 2.02707 3 1.85714 3V-3C0.572929 -3 -0.708781 -2.53328 -1.6617 -1.53272C-2.60205 -0.545351 -3 0.725894 -3 1.95H3ZM1.85714 3H24.1429V-3H1.85714V3ZM24.1429 3C23.9729 3 23.6198 2.92328 23.3169 2.60522C23.0265 2.30035 23 2.00411 23 1.95H29C29 0.725894 28.602 -0.545351 27.6617 -1.53272C26.7088 -2.53328 25.4271 -3 24.1429 -3V3ZM23 1.95V17.55H29V1.95H23ZM23 17.55C23 17.4959 23.0265 17.1996 23.3169 16.8948C23.6198 16.5767 23.9729 16.5 24.1429 16.5V22.5C25.4271 22.5 26.7088 22.0333 27.6617 21.0327C28.602 20.0453 29 18.7741 29 17.55H23Z" fill="#6878FF" mask="url(#path-1-inside-1)"/>
<path d="M19 8L13 11L7 8" stroke="#6878FF" stroke-width="3" stroke-miterlimit="10" stroke-linecap="round"/>
</svg>
