<svg width="54" height="53" viewBox="0 0 54 53" fill="none" xmlns="http://www.w3.org/2000/svg">
<circle cx="29.6147" cy="25.2753" r="21.789" fill="white"/>
<path d="M33.1639 13.7314C31.5559 13.6573 31.0722 13.6443 26.9998 13.6443C22.9275 13.6443 22.4459 13.6595 20.8379 13.7314C16.7002 13.921 14.774 15.8798 14.5844 19.9849C14.5125 21.5929 14.4951 22.0744 14.4951 26.1468C14.4951 30.2192 14.5125 30.7007 14.5844 32.3109C14.774 36.405 16.6914 38.3748 20.8379 38.5643C22.4437 38.6362 22.9275 38.6537 26.9998 38.6537C31.0744 38.6537 31.5559 38.6384 33.1639 38.5643C37.3017 38.3769 39.2256 36.4116 39.4174 32.3109C39.4893 30.7029 39.5045 30.2192 39.5045 26.1468C39.5045 22.0744 39.4893 21.5929 39.4174 19.9849C39.2256 15.882 37.2973 13.921 33.1639 13.7314V13.7314ZM26.9998 33.9799C22.6747 33.9799 19.1667 30.4741 19.1667 26.1468C19.1667 21.8217 22.6747 18.3158 26.9998 18.3158C31.3249 18.3158 34.833 21.8217 34.833 26.1468C34.833 30.4719 31.3249 33.9799 26.9998 33.9799ZM35.1424 19.8367C34.1314 19.8367 33.3121 19.0174 33.3121 18.0064C33.3121 16.9954 34.1314 16.1761 35.1424 16.1761C36.1534 16.1761 36.9726 16.9954 36.9726 18.0064C36.9726 19.0153 36.1534 19.8367 35.1424 19.8367V19.8367ZM32.0832 26.1468C32.0832 28.9554 29.8062 31.2302 26.9998 31.2302C24.1934 31.2302 21.9164 28.9554 21.9164 26.1468C21.9164 23.3382 24.1934 21.0634 26.9998 21.0634C29.8062 21.0634 32.0832 23.3382 32.0832 26.1468ZM26.9998 0C12.5603 0 0.853027 11.7072 0.853027 26.1468C0.853027 40.5864 12.5603 52.2936 26.9998 52.2936C41.4394 52.2936 53.1466 40.5864 53.1466 26.1468C53.1466 11.7072 41.4394 0 26.9998 0ZM42.1606 32.4351C41.91 37.9804 38.8225 41.0526 33.2903 41.3076C31.6627 41.3817 31.1419 41.3991 26.9998 41.3991C22.8577 41.3991 22.3392 41.3817 20.7115 41.3076C15.1684 41.0526 12.094 37.976 11.839 32.4351C11.765 30.8096 11.7475 30.2889 11.7475 26.1468C11.7475 22.0047 11.765 21.4861 11.839 19.8585C12.094 14.3154 15.1706 11.2409 20.7115 10.9882C22.3392 10.9119 22.8577 10.8945 26.9998 10.8945C31.1419 10.8945 31.6627 10.9119 33.2903 10.9882C38.8356 11.2431 41.9122 14.3263 42.1606 19.8585C42.2347 21.4861 42.2521 22.0047 42.2521 26.1468C42.2521 30.2889 42.2347 30.8096 42.1606 32.4351Z" fill="#6878FF"/>
</svg>
