<svg width="39" height="38" viewBox="0 0 39 38" fill="none" xmlns="http://www.w3.org/2000/svg">
<g clip-path="url(#clip0)">
<path d="M31.8325 36.7969L24.1893 29.2926C23.5147 28.6288 23.5147 27.5502 24.1893 26.8865L27.6888 23.4432C28.3633 22.7795 29.4596 22.7795 30.1342 23.4432L37.7774 30.9476C39.4217 32.5655 39.4217 35.179 37.7774 36.7969C36.1331 38.4148 33.4769 38.4148 31.8325 36.7969Z" fill="#6878FF"/>
<path d="M30.1034 15.972L33.2655 12.8607C34.0245 12.1139 34.0245 10.8694 33.2655 10.1227L23.8212 0.830101C22.725 -0.248502 20.912 -0.248502 19.8158 0.830101L17.8764 2.7384L15.8947 4.68818L13.4915 7.05281L10.5401 9.95674L9.78122 10.7035C8.55852 11.9065 8.55852 13.8563 9.78122 15.0594L14.4612 19.6642L12.058 22.0288L6.49257 16.6358C5.73365 15.8891 4.46879 15.8891 3.70987 16.6358L0.547705 19.7471C-0.211214 20.4939 -0.211214 21.7384 0.547705 22.4851L9.99203 31.7777C11.0882 32.8563 12.9012 32.8563 13.9974 31.7777L15.0937 30.6991L17.9185 27.9196L20.3218 25.555L22.8093 23.1074L24.032 21.9043C25.2547 20.7013 25.2547 18.7515 24.032 17.5484L19.3942 12.9022L21.7974 10.5375L27.3207 15.972C28.1218 16.7187 29.3445 16.7187 30.1034 15.972Z" fill="#6878FF"/>
</g>
<defs>
<clipPath id="clip0">
<rect width="39" height="38" fill="white"/>
</clipPath>
</defs>
</svg>
