<svg width="30" height="30" viewBox="0 0 30 30" fill="none" xmlns="http://www.w3.org/2000/svg">
<path d="M15 0C10.925 0 10.4162 0.01875 8.81625 0.09C7.21875 0.165 6.13125 0.41625 5.175 0.7875C4.18875 1.17 3.35125 1.68375 2.5175 2.5175C1.68375 3.35125 1.16875 4.1875 0.7875 5.175C0.41625 6.13125 0.16375 7.21875 0.09 8.81625C0.015 10.4162 0 10.925 0 15C0 19.075 0.01875 19.5838 0.09 21.1838C0.165 22.78 0.41625 23.8688 0.7875 24.825C1.17 25.81 1.68375 26.6488 2.5175 27.4825C3.35125 28.315 4.1875 28.8313 5.175 29.2125C6.1325 29.5825 7.22 29.8362 8.81625 29.91C10.4162 29.985 10.925 30 15 30C19.075 30 19.5838 29.9812 21.1838 29.91C22.78 29.835 23.8688 29.5825 24.825 29.2125C25.81 28.83 26.6488 28.315 27.4825 27.4825C28.315 26.6488 28.8313 25.8138 29.2125 24.825C29.5825 23.8688 29.8362 22.78 29.91 21.1838C29.985 19.5838 30 19.075 30 15C30 10.925 29.9812 10.4162 29.91 8.81625C29.835 7.22 29.5825 6.13 29.2125 5.175C28.83 4.18875 28.315 3.35125 27.4825 2.5175C26.6488 1.68375 25.8138 1.16875 24.825 0.7875C23.8688 0.41625 22.78 0.16375 21.1838 0.09C19.5838 0.015 19.075 0 15 0ZM15 2.7C19.0038 2.7 19.4813 2.72 21.0625 2.78875C22.525 2.8575 23.3187 3.1 23.8462 3.3075C24.5487 3.57875 25.0462 3.90375 25.5737 4.4275C26.0975 4.9525 26.4225 5.45125 26.6937 6.15375C26.8987 6.68125 27.1437 7.475 27.21 8.9375C27.2812 10.52 27.2975 10.995 27.2975 15C27.2975 19.005 27.2787 19.4813 27.205 21.0625C27.1287 22.525 26.885 23.3187 26.6788 23.8462C26.3988 24.5487 26.08 25.0462 25.555 25.5737C25.0313 26.0975 24.525 26.4225 23.83 26.6937C23.305 26.8987 22.4988 27.1437 21.0363 27.21C19.4438 27.2812 18.975 27.2975 14.9625 27.2975C10.9488 27.2975 10.48 27.2787 8.88875 27.205C7.425 27.1287 6.61875 26.885 6.09375 26.6788C5.3825 26.3988 4.89375 26.08 4.37 25.555C3.84375 25.0313 3.5075 24.525 3.245 23.83C3.03875 23.305 2.79625 22.4988 2.72 21.0363C2.66375 19.4613 2.64375 18.975 2.64375 14.9812C2.64375 10.9862 2.66375 10.4988 2.72 8.905C2.79625 7.4425 3.03875 6.6375 3.245 6.1125C3.5075 5.4 3.84375 4.9125 4.37 4.38625C4.89375 3.8625 5.3825 3.525 6.09375 3.26375C6.61875 3.05625 7.4075 2.8125 8.87 2.7375C10.4638 2.68125 10.9325 2.6625 14.9437 2.6625L15 2.7V2.7ZM15 7.2975C10.7438 7.2975 7.2975 10.7475 7.2975 15C7.2975 19.2562 10.7475 22.7025 15 22.7025C19.2562 22.7025 22.7025 19.2525 22.7025 15C22.7025 10.7438 19.2525 7.2975 15 7.2975ZM15 20C12.2375 20 10 17.7625 10 15C10 12.2375 12.2375 10 15 10C17.7625 10 20 12.2375 20 15C20 17.7625 17.7625 20 15 20ZM24.8075 6.99375C24.8075 7.9875 24 8.79375 23.0075 8.79375C22.0138 8.79375 21.2075 7.98625 21.2075 6.99375C21.2075 6.00125 22.015 5.195 23.0075 5.195C23.9988 5.19375 24.8075 6.00125 24.8075 6.99375Z" fill="#777CA0"/>
</svg>
