<svg width="30" height="30" viewBox="0 0 30 30" fill="none" xmlns="http://www.w3.org/2000/svg">
<g clip-path="url(#clip0)">
<path d="M29.9425 5.71137C28.8362 6.19762 27.655 6.52887 26.4112 6.68012C27.6787 5.91637 28.6537 4.71262 29.115 3.27637C27.9262 3.97012 26.6087 4.47512 25.2062 4.75637C24.0862 3.55762 22.49 2.80762 20.7175 2.80762C17.3212 2.80762 14.5675 5.56137 14.5675 8.95387C14.5675 9.44137 14.6237 9.91012 14.7262 10.3589C9.61375 10.1176 5.0825 7.66262 2.05 3.95137C1.51625 4.85387 1.2175 5.90262 1.2175 7.04512C1.2175 9.18262 2.305 11.0614 3.9525 12.1651C2.94375 12.1326 1.995 11.8551 1.1675 11.3951V11.4714C1.1675 14.4526 3.28375 16.9389 6.1 17.5051C5.58375 17.6439 5.03875 17.7189 4.48 17.7189C4.0875 17.7189 3.71125 17.6814 3.335 17.6114C4.12375 20.0526 6.39125 21.8326 9.09 21.8826C6.99 23.5314 4.32875 24.5139 1.4625 24.5139C0.975 24.5139 0.48875 24.4851 0 24.4301C2.73625 26.1726 5.96 27.1914 9.44625 27.1914C20.7637 27.1914 26.945 17.8214 26.945 9.70887C26.945 9.44762 26.945 9.18387 26.9262 8.92137C28.1275 8.06012 29.1762 6.97137 30.0012 5.73637L29.9425 5.71137Z" fill="#777CA0"/>
</g>
<defs>
<clipPath id="clip0">
<rect width="30" height="30" fill="white"/>
</clipPath>
</defs>
</svg>
