<svg width="30" height="30" viewBox="0 0 30 30" fill="none" xmlns="http://www.w3.org/2000/svg">
<path d="M29.3689 7.75629C29.1951 7.13349 28.8635 6.56606 28.4063 6.10885C27.9491 5.65164 27.3817 5.3201 26.7589 5.14629C24.4214 4.52004 15.0139 4.52004 15.0139 4.52004C15.0139 4.52004 5.63012 4.50754 3.26887 5.14629C2.64608 5.3201 2.07865 5.65164 1.62144 6.10885C1.16422 6.56606 0.832687 7.13349 0.658874 7.75629C0.215774 10.1494 -0.00267581 12.5787 0.00637351 15.0125C-0.000965081 17.4372 0.217478 19.8572 0.658874 22.2413C0.832687 22.8641 1.16422 23.4315 1.62144 23.8887C2.07865 24.3459 2.64608 24.6775 3.26887 24.8513C5.60387 25.4788 15.0139 25.4788 15.0139 25.4788C15.0139 25.4788 24.3964 25.4788 26.7589 24.8513C27.3817 24.6775 27.9491 24.3459 28.4063 23.8887C28.8635 23.4315 29.1951 22.8641 29.3689 22.2413C29.8011 19.8563 30.0103 17.4363 29.9939 15.0125C30.012 12.5796 29.8028 10.1503 29.3689 7.75629V7.75629ZM12.0114 19.5013V10.51L19.8414 15.0125L12.0114 19.5013Z" fill="#777CA0"/>
</svg>
