<svg width="52" height="53" viewBox="0 0 52 53" fill="none" xmlns="http://www.w3.org/2000/svg">
<circle cx="27.0185" cy="25.2753" r="21.789" fill="white"/>
<path d="M25.711 0C11.5121 0 0 11.7072 0 26.1468C0 40.5864 11.5121 52.2936 25.711 52.2936C39.9099 52.2936 51.422 40.5864 51.422 26.1468C51.422 11.7072 39.9099 0 25.711 0ZM38.7079 21.0155C39.1 29.8182 32.6444 39.632 21.2159 39.632C17.7406 39.632 14.5074 38.5948 11.7842 36.819C15.0495 37.2112 18.3084 36.2874 20.8945 34.2283C18.2034 34.1782 15.9301 32.3675 15.1438 29.8814C16.1101 30.0688 17.0614 30.0143 17.9249 29.7747C14.966 29.1689 12.9219 26.4584 12.9883 23.5583C13.8197 24.0267 14.7667 24.3078 15.7758 24.3405C13.0355 22.4775 12.2599 18.7974 13.8711 15.9844C16.905 19.7713 21.4408 22.2618 26.5552 22.5233C25.6574 18.61 28.5778 14.8383 32.5523 14.8383C34.3199 14.8383 35.9204 15.5987 37.0431 16.8146C38.4444 16.5357 39.7642 16.0127 40.9512 15.2959C40.4906 16.7579 39.5157 17.9825 38.2451 18.7581C39.49 18.6056 40.677 18.2701 41.7782 17.7711C40.9555 19.0305 39.9142 20.133 38.7079 21.0155V21.0155Z" fill="#6878FF"/>
</svg>
