<svg id="Layer_1" data-name="Layer 1" xmlns="http://www.w3.org/2000/svg" viewBox="0 0 658 462"><g style="opacity:0.5"><rect x="107.53" y="258.8" width="35.6" height="14.17" transform="translate(-79.19 54.75) rotate(-18.85)" style="fill:#fff;stroke:#6878ff;stroke-linejoin:round;stroke-width:2px"/><rect x="102.76" y="269.67" width="49.99" height="6.68" rx="3.34" transform="translate(-81.36 55.92) rotate(-18.85)" style="fill:#fff;stroke:#6878ff;stroke-linejoin:round;stroke-width:2px"/><rect x="51.02" y="191.9" width="122.86" height="72.53" rx="3.73" transform="translate(-67.69 48.57) rotate(-18.85)" style="fill:#fff;stroke:#6878ff;stroke-linejoin:round;stroke-width:2px"/><rect x="59.76" y="200.42" width="105.89" height="54.67" transform="translate(-67.54 48.63) rotate(-18.85)" style="fill:#fff;stroke:#6878ff;stroke-linejoin:round;stroke-width:2px"/><rect x="52.51" y="201.62" width="105.89" height="9.84" transform="translate(-61.08 45.15) rotate(-18.85)" style="fill:#fff;stroke:#6878ff;stroke-linejoin:round;stroke-width:2px"/><circle cx="61.14" cy="221.67" r="1.97" style="fill:#fff;stroke:#6878ff;stroke-linejoin:round;stroke-width:2px"/><circle cx="66.47" cy="219.85" r="1.97" style="fill:#fff;stroke:#6878ff;stroke-linejoin:round;stroke-width:2px"/><circle cx="66.47" cy="219.85" r="1.97" style="fill:#fff;stroke:#6878ff;stroke-linejoin:round;stroke-width:2px"/><circle cx="71.78" cy="218.04" r="1.97" style="fill:#fff;stroke:#6878ff;stroke-linejoin:round;stroke-width:2px"/><rect x="77.09" y="230.55" width="41.93" height="4.12" rx="2.06" transform="translate(-69.9 44.16) rotate(-18.85)" style="fill:#fff;stroke:#6878ff;stroke-linejoin:round;stroke-width:2px"/><rect x="120.46" y="220.73" width="12.72" height="4.12" rx="2.06" transform="translate(-65.18 52.93) rotate(-18.85)" style="fill:#fff;stroke:#6878ff;stroke-linejoin:round;stroke-width:2px"/><rect x="80.52" y="241.79" width="27.57" height="4.12" rx="2.06" transform="translate(-73.73 43.55) rotate(-18.85)" style="fill:#fff;stroke:#6878ff;stroke-linejoin:round;stroke-width:2px"/><rect x="109.95" y="233.23" width="19.96" height="4.12" rx="2.06" transform="translate(-69.59 51.37) rotate(-18.85)" style="fill:#fff;stroke:#6878ff;stroke-linejoin:round;stroke-width:2px"/><rect x="71.39" y="250.58" width="54.12" height="4.12" rx="2.06" transform="translate(-76.35 45.36) rotate(-18.85)" style="fill:#fff;stroke:#6878ff;stroke-linejoin:round;stroke-width:2px"/><path d="M75.35,233.46a.64.64,0,0,1-.78-.88L75.84,230l-2.59-1.27a.64.64,0,0,1,.56-1.14l3.08,1.51a.73.73,0,0,1,.33,1l-1.51,3.07A.62.62,0,0,1,75.35,233.46Zm1-3.23Z" style="fill:#fff;stroke:#6878ff;stroke-linejoin:round;stroke-width:2px"/><path d="M65.76,230.14a.58.58,0,0,1,.48,0,.62.62,0,0,1,.29.85l-1.27,2.58,2.59,1.28a.62.62,0,0,1,.29.84.64.64,0,0,1-.85.3l-3.07-1.51a.75.75,0,0,1-.34-1l1.51-3.07A.61.61,0,0,1,65.76,230.14Zm-1,3.23h0Z" style="fill:#fff;stroke:#6878ff;stroke-linejoin:round;stroke-width:2px"/><rect x="69.76" y="228.29" width="1.51" height="7.03" rx="0.75" transform="translate(46.15 -9.26) rotate(11.15)" style="fill:#fff;stroke:#6878ff;stroke-linejoin:round;stroke-width:2px"/><rect x="81.02" y="223.29" width="19.96" height="4.12" rx="2.06" transform="translate(-67.93 41.49) rotate(-18.85)" style="fill:#fff;stroke:#6878ff;stroke-linejoin:round;stroke-width:2px"/><rect x="103.02" y="215.78" width="19.96" height="4.12" rx="2.06" transform="translate(-64.32 48.2) rotate(-18.85)" style="fill:#fff;stroke:#6878ff;stroke-linejoin:round;stroke-width:2px"/></g><g style="opacity:0.5"><rect x="524.43" y="330.94" width="35.6" height="14.17" transform="translate(162.03 -175.52) rotate(21.55)" style="fill:#fff;stroke:#6878ff;stroke-linejoin:round;stroke-width:2px"/><rect x="514.47" y="341.69" width="49.99" height="6.68" rx="3.34" transform="translate(164.41 -174.01) rotate(21.55)" style="fill:#fff;stroke:#6878ff;stroke-linejoin:round;stroke-width:2px"/><rect x="495.44" y="264.69" width="122.86" height="72.53" rx="3.73" transform="translate(149.44 -183.48) rotate(21.55)" style="fill:#fff;stroke:#6878ff;stroke-linejoin:round;stroke-width:2px"/><rect x="504.38" y="273.47" width="105.89" height="54.67" transform="translate(149.42 -183.66) rotate(21.55)" style="fill:#fff;stroke:#6878ff;stroke-linejoin:round;stroke-width:2px"/><rect x="512.62" y="275.04" width="105.89" height="9.84" transform="translate(142.34 -188.14) rotate(21.55)" style="fill:#fff;stroke:#6878ff;stroke-linejoin:round;stroke-width:2px"/><circle cx="522" cy="262.76" r="1.97" style="fill:#fff;stroke:#6878ff;stroke-linejoin:round;stroke-width:2px"/><circle cx="527.24" cy="264.83" r="1.97" style="fill:#fff;stroke:#6878ff;stroke-linejoin:round;stroke-width:2px"/><circle cx="527.24" cy="264.83" r="1.97" style="fill:#fff;stroke:#6878ff;stroke-linejoin:round;stroke-width:2px"/><circle cx="532.46" cy="266.89" r="1.97" style="fill:#fff;stroke:#6878ff;stroke-linejoin:round;stroke-width:2px"/><rect x="522.06" y="292.96" width="41.93" height="4.12" rx="2.06" transform="translate(146.29 -178.81) rotate(21.55)" style="fill:#fff;stroke:#6878ff;stroke-linejoin:round;stroke-width:2px"/><rect x="564.93" y="304.12" width="12.72" height="4.12" rx="2.06" transform="translate(152.37 -188.41) rotate(21.55)" style="fill:#fff;stroke:#6878ff;stroke-linejoin:round;stroke-width:2px"/><rect x="530.82" y="287.35" width="4.12" height="27.57" rx="2.06" transform="translate(57.09 686.19) rotate(-68.45)" style="fill:#fff;stroke:#6878ff;stroke-linejoin:round;stroke-width:2px"/><rect x="555.89" y="301.25" width="4.12" height="19.96" rx="2.06" transform="translate(63.56 715.89) rotate(-68.45)" style="fill:#fff;stroke:#6878ff;stroke-linejoin:round;stroke-width:2px"/><rect x="503.29" y="308.47" width="54.12" height="4.12" rx="2.06" transform="translate(151.1 -173.07) rotate(21.55)" style="fill:#fff;stroke:#6878ff;stroke-linejoin:round;stroke-width:2px"/><path d="M525.18,281a.64.64,0,0,1,0-1.18l2.64-1.15L526.66,276a.63.63,0,1,1,1.16-.51l1.37,3.15a.72.72,0,0,1-.38.95l-3.15,1.37A.66.66,0,0,1,525.18,281Zm2.84-1.83Z" style="fill:#fff;stroke:#6878ff;stroke-linejoin:round;stroke-width:2px"/><path d="M520,272.2a.65.65,0,0,1,.35.34.63.63,0,0,1-.33.83l-2.64,1.15,1.14,2.64a.63.63,0,1,1-1.16.51L516,274.53a.73.73,0,0,1,.37-1l3.15-1.36A.62.62,0,0,1,520,272.2ZM517.19,274Z" style="fill:#fff;stroke:#6878ff;stroke-linejoin:round;stroke-width:2px"/><rect x="521.82" y="273.03" width="1.51" height="7.03" rx="0.75" transform="translate(414.16 -304.66) rotate(51.55)" style="fill:#fff;stroke:#6878ff;stroke-linejoin:round;stroke-width:2px"/><rect x="532.37" y="282.86" width="19.96" height="4.12" rx="2.06" transform="translate(142.54 -179.27) rotate(21.55)" style="fill:#fff;stroke:#6878ff;stroke-linejoin:round;stroke-width:2px"/><rect x="554" y="291.4" width="19.96" height="4.12" rx="2.06" transform="translate(147.18 -186.62) rotate(21.55)" style="fill:#fff;stroke:#6878ff;stroke-linejoin:round;stroke-width:2px"/></g><g style="opacity:0.5"><polygon points="193.65 99.15 182.02 100 186.74 89.34 222.71 64 229.62 73.81 193.65 99.15" style="fill:#fff;stroke:#6878ff;stroke-linejoin:round;stroke-width:2px"/><rect x="225.07" y="59.45" width="12" height="12" transform="translate(151.51 -161.15) rotate(54.84)" style="fill:#fff;stroke:#6878ff;stroke-linejoin:round;stroke-width:2px"/><line x1="184.19" y1="95.1" x2="187.38" y2="99.61" style="fill:#fff;stroke:#6878ff;stroke-linejoin:round;stroke-width:2px"/><line x1="186.74" y1="89.34" x2="193.65" y2="99.15" style="fill:#fff;stroke:#6878ff;stroke-linejoin:round;stroke-width:2px"/><line x1="219.44" y1="66.3" x2="226.35" y2="76.11" style="fill:#fff;stroke:#6878ff;stroke-linejoin:round;stroke-width:2px"/></g><g style="opacity:0.5"><polygon points="342.23 264.48 344.81 275.85 333.56 272.77 303.15 240.97 311.82 232.68 342.23 264.48" style="fill:#fff;stroke:#6878ff;stroke-linejoin:round;stroke-width:2px"/><rect x="297.34" y="226.48" width="12" height="12" transform="translate(-76.57 274.07) rotate(-43.71)" style="fill:#fff;stroke:#6878ff;stroke-linejoin:round;stroke-width:2px"/><line x1="339.63" y1="274.43" x2="343.62" y2="270.62" style="fill:#fff;stroke:#6878ff;stroke-linejoin:round;stroke-width:2px"/><line x1="333.56" y1="272.77" x2="342.23" y2="264.48" style="fill:#fff;stroke:#6878ff;stroke-linejoin:round;stroke-width:2px"/><line x1="305.92" y1="243.86" x2="314.59" y2="235.57" style="fill:#fff;stroke:#6878ff;stroke-linejoin:round;stroke-width:2px"/></g><g style="opacity:0.5"><rect x="453.3" y="78.76" width="66.44" height="84.09" rx="4.39" transform="matrix(0.95, 0.31, -0.31, 0.95, 61.63, -145.22)" style="fill:#fff;stroke:#6878ff;stroke-linejoin:round;stroke-width:2px"/><path d="M515,117.73l-17.55,53.69a4.4,4.4,0,0,1-5.54,2.81l-54.8-17.92a4.38,4.38,0,0,1-2.81-5.54l23.4-71.57a4.38,4.38,0,0,1,5.54-2.81l37.23,12.17Z" style="fill:#fff;stroke:#6878ff;stroke-linejoin:round;stroke-width:2px"/><path d="M500.43,88.56l-5.86,17.92a4.39,4.39,0,0,0,2.82,5.55l17.57,5.7Z" style="fill:#fff;stroke:#6878ff;stroke-linejoin:round;stroke-width:2px"/><rect x="461.83" y="113.58" width="21.67" height="5.66" rx="2.83" transform="translate(59.58 -141.13) rotate(18.11)" style="fill:#fff;stroke:#6878ff;stroke-linejoin:round;stroke-width:2px"/><rect x="457.9" y="126.78" width="36.45" height="5.66" rx="2.83" transform="translate(63.86 -141.55) rotate(18.11)" style="fill:#fff;stroke:#6878ff;stroke-linejoin:round;stroke-width:2px"/><rect x="454.34" y="137.69" width="36.45" height="5.66" rx="2.83" transform="translate(67.07 -139.9) rotate(18.11)" style="fill:#fff;stroke:#6878ff;stroke-linejoin:round;stroke-width:2px"/></g><g style="opacity:0.5"><rect x="185.71" y="297.36" width="66.44" height="84.09" rx="4.39" transform="translate(-115.02 112.24) rotate(-22.95)" style="fill:#fff;stroke:#6878ff;stroke-linejoin:round;stroke-width:2px"/><path d="M238.36,318.4l22,52a4.4,4.4,0,0,1-2.33,5.76L205,398.66a4.39,4.39,0,0,1-5.76-2.33L169.84,327a4.39,4.39,0,0,1,2.34-5.76L208.24,306Z" style="fill:#fff;stroke:#6878ff;stroke-linejoin:round;stroke-width:2px"/><path d="M208.24,306l7.36,17.36a4.4,4.4,0,0,0,5.77,2.33l17-7.25Z" style="fill:#fff;stroke:#6878ff;stroke-linejoin:round;stroke-width:2px"/><rect x="194.77" y="342.36" width="21.67" height="5.66" rx="2.83" transform="translate(-118.33 107.5) rotate(-22.95)" style="fill:#fff;stroke:#6878ff;stroke-linejoin:round;stroke-width:2px"/><rect x="198.66" y="350.05" width="36.45" height="5.66" rx="2.83" transform="translate(-120.43 112.51) rotate(-22.95)" style="fill:#fff;stroke:#6878ff;stroke-linejoin:round;stroke-width:2px"/><rect x="203.14" y="360.61" width="36.45" height="5.66" rx="2.83" transform="translate(-124.2 115.09) rotate(-22.95)" style="fill:#fff;stroke:#6878ff;stroke-linejoin:round;stroke-width:2px"/></g><g style="opacity:0.5"><rect x="314.23" y="63.3" width="6.75" height="9.62" rx="1.32" transform="translate(28.69 -80.34) rotate(15.09)" style="fill:#fff;stroke:#6878ff;stroke-linejoin:round;stroke-width:2px"/><rect x="328.99" y="66.13" width="27.52" height="13.49" rx="4.52" transform="translate(30.8 -86.72) rotate(15.09)" style="fill:#fff;stroke:#6878ff;stroke-linejoin:round;stroke-width:2px"/><rect x="302.13" y="72.06" width="68.86" height="47.5" rx="4.52" transform="translate(36.55 -84.32) rotate(15.09)" style="fill:#fff;stroke:#6878ff;stroke-linejoin:round;stroke-width:2px"/><circle cx="336.56" cy="95.81" r="16.45" style="fill:#fff;stroke:#6878ff;stroke-linejoin:round;stroke-width:2px"/><circle cx="336.56" cy="95.81" r="10.41" style="fill:#fff;stroke:#6878ff;stroke-linejoin:round;stroke-width:2px"/><rect x="357.57" y="86.88" width="10.56" height="5.28" rx="2.64" transform="translate(35.82 -91.38) rotate(15.09)" style="fill:#fff;stroke:#6878ff;stroke-linejoin:round;stroke-width:2px"/></g><g style="opacity:0.5"><rect x="417.7" y="351.38" width="6.75" height="9.62" rx="1.32" transform="matrix(0.97, -0.25, 0.25, 0.97, -76.57, 118.45)" style="fill:#fff;stroke:#6878ff;stroke-linejoin:round;stroke-width:2px"/><rect x="431.51" y="341.1" width="27.52" height="13.49" rx="4.52" transform="matrix(0.97, -0.25, 0.25, 0.97, -73.66, 124.31)" style="fill:#fff;stroke:#6878ff;stroke-linejoin:round;stroke-width:2px"/><rect x="416.87" y="347.07" width="68.86" height="47.5" rx="4.52" transform="translate(-79.29 126.59) rotate(-14.69)" style="fill:#fff;stroke:#6878ff;stroke-linejoin:round;stroke-width:2px"/><circle cx="451.3" cy="370.82" r="16.45" style="fill:#fff;stroke:#6878ff;stroke-linejoin:round;stroke-width:2px"/><circle cx="451.3" cy="370.82" r="10.41" style="fill:#fff;stroke:#6878ff;stroke-linejoin:round;stroke-width:2px"/><rect x="465.71" y="349.66" width="10.56" height="5.28" rx="2.64" transform="translate(-73.95 130.98) rotate(-14.69)" style="fill:#fff;stroke:#6878ff;stroke-linejoin:round;stroke-width:2px"/></g></svg>