<svg width="52" height="52" viewBox="0 0 52 52" fill="none" xmlns="http://www.w3.org/2000/svg">
<circle cx="25.789" cy="25.789" r="21.789" fill="white"/>
<path d="M26 0C11.6415 0 0 11.6415 0 26C0 40.3585 11.6415 52 26 52C40.3585 52 52 40.3585 52 26C52 11.6415 40.3585 0 26 0ZM35.6222 36.5993C31.0678 36.9113 20.9235 36.9113 16.3757 36.5993C11.4443 36.2613 10.8702 33.8477 10.8333 26C10.8702 18.1372 11.4508 15.7387 16.3757 15.4007C20.9235 15.0887 31.07 15.0887 35.6222 15.4007C40.5557 15.7387 41.1277 18.1523 41.1667 26C41.1277 33.8628 40.5492 36.2613 35.6222 36.5993ZM21.6667 20.9257L32.3202 25.9913L21.6667 31.0743V20.9257V20.9257Z" fill="#6878FF"/>
</svg>
